<?xml version="1.0" encoding="UTF-8"?>
<!DOCTYPE svg PUBLIC "-//W3C//DTD SVG 1.1//EN" "http://www.w3.org/Graphics/SVG/1.1/DTD/svg11.dtd">
<svg xmlns="http://www.w3.org/2000/svg" version="1.1" width="512px" height="512px" style="shape-rendering:geometricPrecision; text-rendering:geometricPrecision; image-rendering:optimizeQuality; fill-rule:evenodd; clip-rule:evenodd" xmlns:xlink="http://www.w3.org/1999/xlink">
<g><path style="opacity:0.981" fill="#000000" d="M -0.5,51.5 C 37.5,51.5 75.5,51.5 113.5,51.5C 113.5,89.5 113.5,127.5 113.5,165.5C 75.5,165.5 37.5,165.5 -0.5,165.5C -0.5,127.5 -0.5,89.5 -0.5,51.5 Z M 29.5,81.5 C 47.1667,81.5 64.8333,81.5 82.5,81.5C 82.5,99.1667 82.5,116.833 82.5,134.5C 64.8333,134.5 47.1667,134.5 29.5,134.5C 29.5,116.833 29.5,99.1667 29.5,81.5 Z"/></g>
<g><path style="opacity:0.984" fill="#000000" d="M 511.5,51.5 C 511.5,89.5 511.5,127.5 511.5,165.5C 390.5,165.5 269.5,165.5 148.5,165.5C 148.5,127.5 148.5,89.5 148.5,51.5C 269.5,51.5 390.5,51.5 511.5,51.5 Z M 179.5,81.5 C 280.167,81.5 380.833,81.5 481.5,81.5C 481.5,99.1667 481.5,116.833 481.5,134.5C 380.833,134.5 280.167,134.5 179.5,134.5C 179.5,116.833 179.5,99.1667 179.5,81.5 Z"/></g>
<g><path style="opacity:0.981" fill="#000000" d="M -0.5,198.5 C 37.5,198.5 75.5,198.5 113.5,198.5C 113.5,236.5 113.5,274.5 113.5,312.5C 75.5,312.5 37.5,312.5 -0.5,312.5C -0.5,274.5 -0.5,236.5 -0.5,198.5 Z M 29.5,228.5 C 47.1667,228.5 64.8333,228.5 82.5,228.5C 82.5,246.167 82.5,263.833 82.5,281.5C 64.8333,281.5 47.1667,281.5 29.5,281.5C 29.5,263.833 29.5,246.167 29.5,228.5 Z"/></g>
<g><path style="opacity:0.984" fill="#000000" d="M 511.5,198.5 C 511.5,236.5 511.5,274.5 511.5,312.5C 390.5,312.5 269.5,312.5 148.5,312.5C 148.5,274.5 148.5,236.5 148.5,198.5C 269.5,198.5 390.5,198.5 511.5,198.5 Z M 179.5,228.5 C 280.167,228.5 380.833,228.5 481.5,228.5C 481.5,246.167 481.5,263.833 481.5,281.5C 380.833,281.5 280.167,281.5 179.5,281.5C 179.5,263.833 179.5,246.167 179.5,228.5 Z"/></g>
<g><path style="opacity:0.981" fill="#000000" d="M -0.5,345.5 C 37.5,345.5 75.5,345.5 113.5,345.5C 113.5,383.5 113.5,421.5 113.5,459.5C 75.5,459.5 37.5,459.5 -0.5,459.5C -0.5,421.5 -0.5,383.5 -0.5,345.5 Z M 29.5,375.5 C 47.1667,375.5 64.8333,375.5 82.5,375.5C 82.5,393.167 82.5,410.833 82.5,428.5C 64.8333,428.5 47.1667,428.5 29.5,428.5C 29.5,410.833 29.5,393.167 29.5,375.5 Z"/></g>
<g><path style="opacity:0.984" fill="#000000" d="M 511.5,345.5 C 511.5,383.5 511.5,421.5 511.5,459.5C 390.5,459.5 269.5,459.5 148.5,459.5C 148.5,421.5 148.5,383.5 148.5,345.5C 269.5,345.5 390.5,345.5 511.5,345.5 Z M 179.5,375.5 C 280.167,375.5 380.833,375.5 481.5,375.5C 481.5,393.167 481.5,410.833 481.5,428.5C 380.833,428.5 280.167,428.5 179.5,428.5C 179.5,410.833 179.5,393.167 179.5,375.5 Z"/></g>
</svg>
