<?xml version="1.0" encoding="utf-8"?>
<!-- Generator: Adobe Illustrator 16.0.0, SVG Export Plug-In . SVG Version: 6.00 Build 0)  -->
<!DOCTYPE svg PUBLIC "-//W3C//DTD SVG 1.1//EN" "http://www.w3.org/Graphics/SVG/1.1/DTD/svg11.dtd">
<svg version="1.1" id="Layer_1" xmlns="http://www.w3.org/2000/svg" xmlns:xlink="http://www.w3.org/1999/xlink" x="0px" y="0px"
	 width="145px" height="81.032px" viewBox="0 0 145 81.032" enable-background="new 0 0 145 81.032" xml:space="preserve">
<g>
	<path fill-rule="evenodd" clip-rule="evenodd" fill="#056737" d="M0.075,0C48.417,0,96.758,0,145.1,0c0,27.012,0,54.023,0,81.032
		c-47.907,0-95.814,0-143.722-0.001c-0.434,0-0.867-0.006-1.302-0.01c0-6.771-0.003-13.541-0.003-20.311
		C0.073,40.474,0.074,20.237,0.075,0z M120.764,75.916c0.171-0.006,0.346-0.017,0.519-0.018c6.197-0.002,12.396-0.003,18.594-0.01
		c0.167,0,0.334-0.049,0.5-0.074c0.037-0.171,0.105-0.342,0.105-0.512c0.005-23.311,0.005-46.621,0.005-69.932
		c0-0.112,0.016-0.226-0.008-0.334c-0.014-0.072-0.08-0.136-0.122-0.202c-0.088-0.002-0.175-0.005-0.26-0.005
		c-7.066,0.002-14.132,0.007-21.196,0.009c-2.181,0-4.363-0.008-6.543-0.012c-0.102-0.046-0.202-0.13-0.303-0.132
		c-0.715-0.013-1.43-0.013-2.145,0c-0.103,0.001-0.2,0.086-0.302,0.132c-0.051,0-0.103,0-0.153,0c-0.173-0.218-0.344-0.22-0.517,0
		c-0.225,0-0.449,0-0.673,0c-0.098-0.203-0.197-0.203-0.295,0c-0.424,0-0.846,0-1.268,0c-0.1-0.203-0.196-0.203-0.295,0
		c-0.102,0-0.2,0-0.301,0c-0.073-0.182-0.147-0.181-0.22,0c-1.144,0.002-2.283,0.003-3.428,0.004
		c-0.168-0.023-0.334-0.067-0.502-0.067C81.521,4.763,61.08,4.763,40.642,4.763c-0.111,0-0.227-0.015-0.333,0.007
		c-0.071,0.015-0.133,0.082-0.198,0.126c-1.094,0.001-2.187,0.001-3.281,0.003c-0.114-0.045-0.228-0.13-0.343-0.13
		c-3.961-0.007-7.924-0.007-11.887,0c-0.113,0-0.227,0.087-0.339,0.133c-0.101,0-0.202,0-0.302,0.001
		c-0.124-0.204-0.247-0.204-0.369,0.001c-1.167,0-2.334,0.002-3.501,0.003c-0.371,0-0.741,0-1.111,0c-0.546,0-1.094,0-1.642,0
		c-0.131-0.024-0.261-0.068-0.391-0.068c-3.674-0.003-7.346-0.003-11.019,0c-0.141,0-0.279,0.054-0.419,0.083
		C5.495,4.947,5.482,4.971,5.47,4.996C5.433,5.164,5.362,5.333,5.362,5.503C5.357,23.751,5.357,42.001,5.357,60.25
		c0,5.084,0,10.164,0.006,15.249c0,0.155,0.075,0.312,0.115,0.465c0.146,0.022,0.29,0.063,0.434,0.062
		c1.09-0.01,2.18-0.037,3.27-0.038c15.458-0.01,30.915-0.015,46.373-0.019c2.095-0.002,4.19,0.005,6.285,0.008
		c0.55,0.024,1.1,0.058,1.651,0.065c0.24,0.005,0.481-0.042,0.724-0.065c0.125,0,0.251,0,0.378,0
		c0.167,0.023,0.335,0.067,0.503,0.067c17.375,0.003,34.748,0.003,52.122,0.003c1.055,0,2.109,0.003,3.163-0.007
		C120.508,76.039,120.634,75.96,120.764,75.916z"/>
	<path fill-rule="evenodd" clip-rule="evenodd" fill="#3E8B66" d="M0.076,81.021C0.051,81.025,0.025,81.029,0,81.032
		C0,54.133,0,27.234,0.003,0.335C0.003,0.223,0.05,0.111,0.075,0c0,20.237-0.001,40.474-0.001,60.711
		C0.073,67.48,0.076,74.251,0.076,81.021z"/>
	<path fill-rule="evenodd" clip-rule="evenodd" fill="#060802" d="M106.703,4.828c0.422,0,0.844,0,1.268,0c0.098,0,0.197,0,0.295,0
		c0.224,0,0.448,0,0.673,0c0.173,0,0.345,0,0.517,0c0.051,0,0.103,0,0.153,0c0.916,0,1.832,0,2.749,0
		c2.18,0.004,4.362,0.012,6.543,0.012c7.064-0.001,14.13-0.006,21.196-0.009c0.085,0,0.172,0.003,0.26,0.005
		c-0.001,23.523-0.001,47.049,0,70.572c0,0.135,0.014,0.271,0.02,0.407c-0.166,0.025-0.333,0.074-0.5,0.074
		c-6.198,0.007-12.396,0.008-18.594,0.01c-0.173,0.001-0.348,0.012-0.519,0.018c-0.139-0.004-0.274-0.011-0.409-0.011
		c-8.78,0.016-17.559,0.036-26.337,0.049c-6.374,0.008-12.748,0.006-19.122,0.01c-3.435,0.002-6.87,0.008-10.304,0.013
		c-0.126,0-0.252,0-0.378,0c-0.792,0-1.583,0-2.375,0c-2.095-0.003-4.19-0.01-6.285-0.008c-15.458,0.004-30.914,0.009-46.373,0.019
		c-1.09,0.001-2.18,0.028-3.27,0.038c-0.144,0.001-0.288-0.039-0.434-0.062c0.004-0.147,0.011-0.297,0.011-0.444
		c0-23.349,0-46.695,0-70.042c0-0.161-0.012-0.322-0.018-0.481c0.012-0.025,0.025-0.049,0.037-0.073
		c0.136,0,0.273-0.001,0.409-0.002c3.806-0.004,7.613-0.008,11.419-0.013c0.547,0,1.095,0,1.642,0c0.371,0,0.741,0,1.111,0
		c1.167-0.001,2.334-0.002,3.501-0.003c0.123,0,0.246,0,0.369-0.001c0.1-0.001,0.201-0.001,0.302-0.001
		c2.355,0.003,4.71,0.008,7.065,0.008c1.834-0.001,3.669-0.008,5.504-0.012c1.094-0.001,2.187-0.002,3.281-0.003
		c0.31,0.003,0.62,0.011,0.929,0.011c11.971-0.018,23.941-0.039,35.912-0.055c5.008-0.006,10.014-0.003,15.021-0.006
		c3.496-0.003,6.99-0.008,10.486-0.014c1.145-0.001,2.284-0.002,3.428-0.004c0.073,0,0.146,0,0.22,0c0.101,0,0.199,0,0.301,0
		C106.507,4.828,106.604,4.828,106.703,4.828z M137.517,73.291c0-22.016,0-43.997,0-65.98c-43.052,0-86.08,0-129.115,0
		c0,22,0,43.982,0,65.98C51.447,73.291,94.476,73.291,137.517,73.291z"/>
	<path fill-rule="evenodd" clip-rule="evenodd" fill="#05743E" d="M5.47,4.996c0.006,0.16,0.018,0.321,0.018,0.481
		c0,23.347,0,46.694,0,70.042c0,0.147-0.007,0.297-0.011,0.444c-0.04-0.153-0.115-0.31-0.115-0.465
		C5.356,70.414,5.357,65.334,5.357,60.25c0-18.249,0-36.499,0.005-54.747C5.362,5.333,5.433,5.164,5.47,4.996z"/>
	<path fill-rule="evenodd" clip-rule="evenodd" fill="#06743F" d="M140.376,75.814c-0.006-0.136-0.02-0.272-0.02-0.407
		c-0.001-23.523-0.001-47.049,0-70.572c0.042,0.066,0.108,0.13,0.122,0.202c0.023,0.108,0.008,0.222,0.008,0.334
		c0,23.311,0,46.621-0.005,69.932C140.481,75.473,140.413,75.644,140.376,75.814z"/>
	<path fill-rule="evenodd" clip-rule="evenodd" fill="#04713D" d="M102.46,4.832c-3.496,0.006-6.99,0.01-10.486,0.014
		c-5.008,0.003-10.014,0-15.021,0.006C64.981,4.868,53.011,4.889,41.04,4.907c-0.31,0-0.62-0.007-0.929-0.011
		c0.064-0.044,0.126-0.111,0.198-0.126c0.106-0.022,0.222-0.007,0.333-0.007c20.438,0,40.879,0,61.316,0.002
		C102.126,4.765,102.292,4.809,102.46,4.832z"/>
	<path fill-rule="evenodd" clip-rule="evenodd" fill="#04743F" d="M64.591,75.977c3.434-0.005,6.869-0.011,10.304-0.013
		c6.374-0.004,12.748-0.002,19.122-0.01c8.778-0.013,17.557-0.033,26.337-0.049c0.135,0,0.271,0.007,0.409,0.011
		c-0.13,0.044-0.256,0.123-0.385,0.124c-1.054,0.01-2.108,0.007-3.163,0.007c-17.374,0-34.747,0-52.122-0.003
		C64.926,76.044,64.759,76,64.591,75.977z"/>
	<path fill-rule="evenodd" clip-rule="evenodd" fill="#04713D" d="M36.83,4.899c-1.835,0.003-3.67,0.011-5.504,0.012
		c-2.355,0-4.71-0.005-7.065-0.008c0.113-0.046,0.226-0.133,0.339-0.133c3.963-0.007,7.926-0.007,11.887,0
		C36.603,4.769,36.716,4.854,36.83,4.899z"/>
	<path fill-rule="evenodd" clip-rule="evenodd" fill="#04713D" d="M17.335,4.907C13.529,4.912,9.722,4.916,5.916,4.92
		c-0.136,0-0.273,0.001-0.409,0.002C5.647,4.894,5.786,4.84,5.926,4.84c3.672-0.004,7.345-0.004,11.019,0
		C17.075,4.839,17.205,4.883,17.335,4.907z"/>
	<path fill-rule="evenodd" clip-rule="evenodd" fill="#04713D" d="M112.357,4.827c-0.917,0-1.833,0-2.749,0
		c0.102-0.046,0.199-0.131,0.302-0.132c0.715-0.013,1.43-0.013,2.145,0C112.155,4.696,112.256,4.781,112.357,4.827z"/>
	<path fill-rule="evenodd" clip-rule="evenodd" fill="#04743F" d="M61.838,75.977c0.792,0,1.583,0,2.375,0
		c-0.242,0.023-0.483,0.07-0.724,0.065C62.938,76.034,62.389,76.001,61.838,75.977z"/>
	<path fill-rule="evenodd" clip-rule="evenodd" fill="#04713D" d="M20.088,4.907c-0.371,0-0.741,0-1.111,0
		C19.348,4.907,19.718,4.907,20.088,4.907z"/>
	<path fill-rule="evenodd" clip-rule="evenodd" fill="#04713D" d="M109.455,4.827c-0.172,0-0.344,0-0.517,0
		C109.111,4.607,109.282,4.609,109.455,4.827z"/>
	<path fill-rule="evenodd" clip-rule="evenodd" fill="#04713D" d="M23.958,4.903c-0.123,0-0.246,0.001-0.369,0.001
		C23.712,4.699,23.834,4.699,23.958,4.903z"/>
	<path fill-rule="evenodd" clip-rule="evenodd" fill="#04713D" d="M106.703,4.828c-0.1,0-0.196,0-0.295,0
		C106.507,4.625,106.604,4.625,106.703,4.828z"/>
	<path fill-rule="evenodd" clip-rule="evenodd" fill="#04713D" d="M108.266,4.828c-0.098,0-0.197,0-0.295,0
		C108.068,4.625,108.168,4.625,108.266,4.828z"/>
	<path fill-rule="evenodd" clip-rule="evenodd" fill="#04713D" d="M106.107,4.828c-0.073,0-0.146,0-0.22,0
		C105.96,4.646,106.034,4.646,106.107,4.828z"/>
	<path fill-rule="evenodd" clip-rule="evenodd" fill="#F4E629" d="M137.517,73.291c-43.041,0-86.069,0-129.115,0
		c0-21.998,0-43.979,0-65.98c43.035,0,86.063,0,129.115,0C137.517,29.294,137.517,51.275,137.517,73.291z M55.138,38.247
		l-0.002-0.001c-0.009-0.047-0.027-0.094-0.026-0.139c0.085-2.305,0.172-4.609,0.261-6.913c0.01-0.266,0.029-0.531,0.046-0.822
		c-5.042,0.937-10.034,1.864-15.032,2.793c-0.184-0.416-0.361-0.795-0.521-1.182c-0.075-0.183-0.162-0.22-0.364-0.173
		c-2.99,0.683-5.983,1.353-8.975,2.025c-0.924,0.208-1.851,0.411-2.791,0.618c-0.714-2.715-1.423-5.4-2.134-8.101
		c-4.063,1.313-8.091,2.616-12.138,3.925c1.786,10.096,3.567,20.163,5.354,30.255c3.014-1.135,5.977-2.251,9-3.393
		c0,2.024,0,3.993,0,5.975c0.133-0.012,0.22-0.012,0.303-0.026c1.992-0.38,3.987-0.758,5.979-1.14
		c2.126-0.405,4.253-0.811,6.378-1.222c0.222-0.044,0.328,0.014,0.414,0.229c0.276,0.7,0.586,1.388,0.862,2.088
		c0.096,0.244,0.208,0.285,0.468,0.233c3.195-0.615,6.393-1.213,9.589-1.816c0.752-0.142,1.503-0.287,2.258-0.433
		c0.128-2.29,0.254-4.55,0.382-6.831c2.179,0.221,4.314,0.439,6.481,0.657c0,0.496,0,0.951,0,1.45
		c4.033-1.189,8.021-2.368,12.077-3.565c0,2.415,0,4.777,0,7.164c0.205,0,0.354,0.004,0.501,0c1.301-0.048,2.601-0.075,3.901-0.146
		c2.934-0.158,5.844-0.522,8.708-1.198c2.174-0.511,4.292-1.188,6.199-2.388c1.945-1.227,3.439-2.828,4.076-5.096
		c0.155-0.552,0.207-1.134,0.307-1.71c1.146,0.125,2.297,0.252,3.5,0.384c0,0.46,0,0.883,0,1.347c3.552-1.008,7.037-2,10.565-3.001
		c-0.112,2.046-0.224,4.031-0.335,6.037c5.933,0.977,11.834,1.946,17.745,2.917c0.635-5.832,1.265-11.601,1.897-17.401
		c-1.702,0.49-3.362,0.968-5.062,1.457c0.412-5.438,0.817-10.842,1.227-16.282c-4.503,0.167-8.954,0.333-13.42,0.5
		c-0.291,2.612-0.577,5.179-0.864,7.747c-0.021,0-0.04,0-0.061-0.001c-1.16-5.051-2.32-10.102-3.481-15.161
		c-0.277,0.04-0.496,0.069-0.717,0.102c-2.597,0.382-5.192,0.767-7.79,1.142c-0.239,0.035-0.348,0.135-0.426,0.364
		c-1.854,5.317-3.715,10.63-5.574,15.945c-0.749,2.145-1.495,4.29-2.251,6.432c-0.038,0.111-0.161,0.293-0.218,0.283
		c-0.332-0.059-0.697-0.102-0.966-0.277c-0.155-0.102-0.232-0.465-0.191-0.68c0.034-0.174,0.28-0.338,0.468-0.439
		c0.15-0.08,0.357-0.059,0.518-0.08c0-4.515,0-9.024,0-13.532c-0.093-0.026-0.141-0.046-0.188-0.05
		c-0.137-0.012-0.271-0.02-0.407-0.023c-1.776-0.044-3.544,0.046-5.304,0.289c-2.438,0.337-4.807,0.934-7.029,2.017
		c-2.854,1.389-5.083,3.409-6.357,6.375c-0.029,0.065-0.07,0.125-0.125,0.224c-0.97-4.426-1.925-8.791-2.881-13.16
		c-2.911,0.576-5.761,1.145-8.615,1.696c-0.242,0.047-0.319,0.161-0.391,0.362c-1.259,3.522-2.522,7.043-3.79,10.562
		C55.839,36.391,55.485,37.317,55.138,38.247z M24.452,14.813c0.061-0.001,0.121-0.002,0.181-0.004c0,1.153,0.001,2.305,0.001,3.458
		c0,1.174,0,2.349,0,3.534c0.777,0,1.514,0,2.284,0c-0.048-3.183-0.097-6.347-0.145-9.552c-1.134,0-2.231,0-3.354,0
		c-0.436,2.155-0.873,4.317-1.311,6.479c-0.505-2.083-0.959-4.157-1.403-6.234c-0.04-0.186-0.086-0.274-0.301-0.273
		c-1.054,0.012-2.108,0.006-3.162,0.008c-0.056,0-0.112,0.028-0.17,0.044c-0.136,3.219-0.271,6.421-0.406,9.635
		c0.738,0,1.437,0,2.181,0c0-2.229,0-4.434,0-6.636c0.031-0.006,0.061-0.012,0.092-0.018c0.039,0.109,0.088,0.214,0.116,0.326
		c0.102,0.409,0.196,0.817,0.293,1.226c0.367,1.552,0.731,3.104,1.109,4.653c0.025,0.098,0.147,0.246,0.228,0.248
		c0.729,0.02,1.459,0.012,2.207,0.012C23.416,19.402,23.934,17.108,24.452,14.813z M43.389,22.066
		c-0.279,1.089,0.47,2.373,1.59,2.702c1.183,0.347,2.38,0.298,3.558-0.032c0.963-0.272,1.574-0.912,1.764-1.906
		c0.078-0.411,0.139-0.834,0.143-1.251c0.015-2.021,0.007-4.043,0.007-6.063c0-0.083-0.012-0.166-0.019-0.253
		c-0.525,0-1.029,0-1.491,0c-0.112,0.245-0.21,0.461-0.339,0.743c-0.682-0.851-1.536-1.035-2.483-0.972
		c-0.975,0.065-1.774,0.44-2.279,1.309c-0.524,0.899-0.609,1.878-0.424,2.877c0.291,1.564,1.547,2.484,3.119,2.285
		c0.433-0.055,0.853-0.217,1.283-0.33c0,0.702,0,1.414,0,2.143c-0.717,0-1.416,0-2.132,0c0-0.383,0-0.75,0-1.138
		C44.914,22.142,44.162,22.104,43.389,22.066z M32.305,17.63c-0.433,0.032-0.828,0.056-1.222,0.09
		c-0.764,0.063-1.536,0.104-2.196,0.568c-0.75,0.526-1.081,1.233-0.91,2.149c0.151,0.81,0.699,1.225,1.452,1.401
		c1.056,0.249,2.067,0.209,2.941-0.544c0.051-0.044,0.113-0.075,0.206-0.133c0.02,0.221,0.036,0.397,0.054,0.599
		c0.764,0,1.503,0,2.192,0c0-1.135,0-2.269,0-3.404c0-0.408,0.024-0.816-0.004-1.223c-0.07-1.019-0.584-1.722-1.52-1.965
		c-1.293-0.335-2.605-0.31-3.893,0.028c-0.786,0.205-1.246,0.941-1.186,1.754c0.613,0,1.225,0,1.842,0
		c0.017-0.129,0.042-0.239,0.042-0.349c0.002-0.268,0.141-0.375,0.396-0.359c0.601,0.037,1.201,0.074,1.806,0.111
		C32.305,16.809,32.305,17.201,32.305,17.63z M40.159,17.046c0,1.638,0,3.228,0,4.808c0.846,0,1.607,0,2.388,0
		c0-0.645,0.007-1.263-0.001-1.881c-0.016-1.128-0.011-2.256-0.068-3.382c-0.047-0.908-0.444-1.392-1.135-1.471
		c-0.721-0.083-1.442-0.063-2.109,0.268c-0.48,0.238-0.94,0.52-1.432,0.794c0-0.207,0-0.422,0-0.696c-0.68,0-1.326,0-1.94,0
		c0,2.019,0,4.045,0,6.063c0.733,0,1.505,0,2.321,0c0-1.502,0-2.957,0-4.416C38.833,17.105,39.439,17.078,40.159,17.046z
		 M131.104,56.409c-1.394,0.002-2.531,1.18-2.531,2.614c0.001,1.418,1.153,2.564,2.578,2.569c1.374,0.003,2.535-1.194,2.543-2.619
		C133.701,57.577,132.518,56.407,131.104,56.409z"/>
	<path fill-rule="evenodd" clip-rule="evenodd" fill="#0A0704" d="M55.138,38.247c0.347-0.93,0.701-1.856,1.038-2.79
		c1.268-3.519,2.531-7.04,3.79-10.562c0.072-0.201,0.149-0.315,0.391-0.362c2.854-0.551,5.704-1.121,8.615-1.696
		c0.956,4.369,1.911,8.733,2.881,13.16c0.055-0.099,0.096-0.159,0.125-0.224c1.274-2.966,3.503-4.987,6.357-6.375
		c2.223-1.083,4.591-1.679,7.029-2.017c1.76-0.243,3.527-0.333,5.304-0.289c0.136,0.003,0.271,0.011,0.407,0.023
		c0.047,0.004,0.095,0.024,0.188,0.05c0,4.507,0,9.017,0,13.532c-0.16,0.021-0.367,0-0.518,0.08
		c-0.188,0.102-0.434,0.266-0.468,0.439c-0.041,0.215,0.036,0.578,0.191,0.68c0.269,0.176,0.634,0.219,0.966,0.277
		c0.057,0.01,0.18-0.172,0.218-0.283c0.756-2.142,1.502-4.287,2.251-6.432c1.859-5.314,3.72-10.628,5.574-15.945
		c0.078-0.229,0.187-0.33,0.426-0.364c2.598-0.375,5.193-0.76,7.79-1.142c0.221-0.032,0.439-0.062,0.717-0.102
		c1.161,5.059,2.321,10.109,3.481,15.161c0.021,0,0.04,0.001,0.061,0.001c0.287-2.568,0.573-5.134,0.864-7.747
		c4.466-0.167,8.917-0.333,13.42-0.5c-0.409,5.44-0.814,10.843-1.227,16.282c1.699-0.489,3.359-0.967,5.062-1.457
		c-0.633,5.801-1.263,11.569-1.897,17.401c-5.911-0.971-11.813-1.94-17.745-2.917c0.111-2.006,0.223-3.991,0.335-6.037
		c-3.528,1.001-7.014,1.993-10.565,3.001c0-0.464,0-0.887,0-1.347c-1.203-0.132-2.354-0.259-3.5-0.384
		c-0.1,0.576-0.151,1.158-0.307,1.71c-0.637,2.268-2.131,3.869-4.076,5.096c-1.907,1.2-4.025,1.877-6.199,2.388
		c-2.864,0.676-5.774,1.04-8.708,1.198c-1.301,0.071-2.601,0.099-3.901,0.146c-0.147,0.004-0.296,0-0.501,0c0-2.387,0-4.749,0-7.164
		c-4.056,1.197-8.044,2.376-12.077,3.565c0-0.499,0-0.954,0-1.45c-2.167-0.218-4.302-0.437-6.481-0.657
		c-0.127,2.281-0.254,4.541-0.382,6.831c-0.755,0.146-1.506,0.291-2.258,0.433c-3.197,0.604-6.395,1.201-9.589,1.816
		c-0.26,0.052-0.372,0.011-0.468-0.233c-0.276-0.7-0.585-1.388-0.862-2.088c-0.085-0.215-0.191-0.272-0.414-0.229
		c-2.125,0.411-4.251,0.816-6.378,1.222c-1.992,0.382-3.987,0.76-5.979,1.14c-0.083,0.015-0.17,0.015-0.303,0.026
		c0-1.981,0-3.95,0-5.975c-3.022,1.142-5.985,2.258-9,3.393c-1.786-10.092-3.568-20.159-5.354-30.255
		c4.047-1.309,8.074-2.612,12.138-3.925c0.711,2.701,1.419,5.386,2.134,8.101c0.94-0.208,1.867-0.41,2.791-0.618
		c2.992-0.672,5.985-1.342,8.975-2.025c0.202-0.046,0.289-0.009,0.364,0.173c0.16,0.387,0.337,0.766,0.521,1.182
		c4.998-0.929,9.99-1.856,15.032-2.793c-0.017,0.291-0.036,0.557-0.046,0.822c-0.089,2.304-0.175,4.608-0.261,6.913
		c-0.001,0.045,0.017,0.092,0.026,0.139c-0.015,0.007-0.03,0.015-0.046,0.023c0.006,0.01,0.012,0.02,0.018,0.03
		C55.118,38.281,55.128,38.265,55.138,38.247z M123.216,29.914c-0.001-0.248-0.002-0.496-0.003-0.744
		c0.012-0.019,0.015-0.041,0.014-0.063c0.047-0.302,0.092-0.605,0.138-0.906c0.002-0.049,0.005-0.098,0.006-0.147
		c0.026-0.191,0.053-0.383,0.08-0.585c-2.786,0-5.534,0-8.313,0c-0.099,1.282-0.197,2.534-0.292,3.786
		c-0.259,3.136-0.521,6.273-0.776,9.41c-0.03,0.381-0.093,0.773-0.034,1.145c0.142,0.867,0.35,1.723,0.529,2.582
		c0.146,0.711,0.288,1.422,0.436,2.151c-0.479,0.103-0.91,0.207-1.346,0.284c-0.238,0.044-0.315,0.143-0.315,0.393
		c-0.002,1.177-0.026,2.355-0.038,3.532c-0.005,0.355,0,0.713,0,1.096c4.289,0.583,8.577,1.165,12.908,1.753
		c0.22-3.586,0.438-7.123,0.657-10.697c-1.639,0.35-3.218,0.684-4.813,1.022c0-0.203-0.01-0.35,0.002-0.495
		c0.093-1.074,0.188-2.148,0.282-3.223c0.186-2.122,0.375-4.246,0.557-6.368C123.006,32.531,123.11,31.223,123.216,29.914z
		 M88.473,38.242c0.307,0.039,0.191-0.199,0.192-0.324c0.013-2.658,0.018-5.316,0.022-7.974c0-0.094-0.014-0.188-0.025-0.339
		c-0.6,0.03-1.176,0.06-1.752,0.089c-1.033,0.123-2.072,0.198-3.095,0.378c-2.359,0.413-4.565,1.218-6.478,2.71
		c-2.338,1.826-3.729,4.112-3.45,7.195c0.165,1.824,0.978,3.265,2.607,4.158c0.602,0.331,1.268,0.549,1.904,0.818
		c0.41,0.173,0.835,0.316,1.224,0.526c0.266,0.141,0.568,0.346,0.495,0.711c-0.074,0.375-0.398,0.512-0.74,0.589
		c-0.037,0.009-0.074,0.018-0.111,0.019c-0.839,0.027-1.679,0.066-2.52,0.077c-0.415,0.007-0.83-0.041-1.28-0.064
		c0,3.338,0,6.637,0,9.985c1.399-0.069,2.774-0.096,4.142-0.219c1.564-0.142,3.125-0.364,4.685-0.559
		c1.704-0.214,3.361-0.605,4.934-1.314c1.669-0.752,3.111-1.79,4.117-3.354c0.539-0.838,0.835-1.758,0.67-2.756
		c-0.324-1.979-1.284-3.514-3.202-4.323c-0.242-0.103-0.475-0.212-0.721-0.301c-1.392-0.52-2.789-1.014-4.171-1.559
		c-0.453-0.18-0.905-0.427-1.275-0.742c-1.078-0.925-0.809-2.425,0.499-2.943c0.185-0.073,0.373-0.152,0.565-0.176
		C86.629,38.438,87.552,38.344,88.473,38.242z M30.151,54.021c0,1.915,0,3.83,0,5.791c0.355-0.081,0.654-0.146,0.954-0.214
		c1.591-0.308,3.183-0.617,4.774-0.928c0.98-0.191,1.961-0.386,2.959-0.586c-0.238-2.353-0.473-4.675-0.708-7
		c0.021-0.005,0.042-0.01,0.064-0.013c1.684,3.091,3.368,6.182,5.049,9.269c2.746-0.568,5.447-1.132,8.152-1.678
		c0.258-0.051,0.343-0.138,0.354-0.4c0.05-1.336,0.123-2.674,0.185-4.012c0.008-0.169,0.001-0.337,0.001-0.511
		c-0.7-0.085-1.362-0.164-2.051-0.249c0.044-0.132,0.077-0.234,0.114-0.337c0.65-1.778,1.309-3.553,1.942-5.337
		c0.125-0.354,0.19-0.741,0.213-1.118c0.102-1.681,0.175-3.366,0.261-5.049c0.142-2.799,0.286-5.596,0.427-8.393
		c0.005-0.092-0.009-0.184-0.015-0.287c-3.348,0.526-6.661,1.047-10.005,1.573c-0.091,2.32-0.181,4.625-0.271,6.93
		c-0.023,0.005-0.046,0.01-0.068,0.015c-1.271-2.297-2.543-4.597-3.814-6.896c-2.793,0.66-5.551,1.31-8.309,1.961
		c-0.25-0.006-0.293,0.13-0.292,0.356c0.014,1.223,0.01,2.448,0.018,3.672c0.015,2.497,0.035,4.994,0.054,7.491
		c0,0.05,0,0.097,0,0.146c0.002,1.438,0.003,2.878,0.004,4.317C30.147,53.028,30.148,53.523,30.151,54.021z M52.842,51.478
		c2.472,0.183,4.905,0.367,7.338,0.54c0.631,0.047,0.631,0.032,0.779-0.593c0.418-1.783,0.834-3.567,1.264-5.35
		c0.026-0.108,0.162-0.271,0.25-0.273c0.417-0.008,0.833,0.03,1.274,0.054c-0.063,2.241-0.124,4.448-0.185,6.692
		c3.029-0.819,6.009-1.626,9.029-2.442c-1.803-8.133-3.598-16.231-5.394-24.334c-1.685,0.296-3.305,0.587-4.929,0.858
		c-0.279,0.046-0.418,0.158-0.517,0.428c-2.641,7.253-5.293,14.502-7.942,21.752C53.488,49.688,53.171,50.57,52.842,51.478z
		 M111.988,44.747c-1.749-8.077-3.485-16.114-5.229-24.17c-1.636,0.256-3.225,0.513-4.815,0.744
		c-0.281,0.04-0.389,0.158-0.477,0.409c-2.197,6.177-4.399,12.352-6.604,18.527c-0.322,0.904-0.646,1.81-0.973,2.728
		c1.489,0.884,2.436,2.149,2.92,3.776c0.026,0.09,0.206,0.186,0.318,0.189c0.806,0.03,1.611,0.04,2.416,0.057
		c0.747,0.014,0.744,0.011,0.911-0.719c0.421-1.846,0.843-3.691,1.277-5.535c0.031-0.126,0.157-0.316,0.252-0.324
		c0.44-0.035,0.883-0.016,1.363-0.016c-0.066,2.275-0.134,4.571-0.202,6.899C106.108,46.453,109.029,45.605,111.988,44.747z
		 M20.369,56.949c0.101-0.023,0.149-0.03,0.194-0.047c2.282-0.891,4.562-1.786,6.847-2.669c0.23-0.089,0.278-0.218,0.276-0.445
		c-0.025-2.949-0.04-5.9-0.063-8.851c-0.001-0.17-0.029-0.345-0.071-0.51c-1.11-4.226-2.223-8.448-3.334-12.672
		c-0.206-0.785-0.408-1.572-0.616-2.371c-2.636,0.818-5.23,1.623-7.845,2.435C17.295,40.2,18.831,48.569,20.369,56.949z"/>
	<path fill-rule="evenodd" clip-rule="evenodd" fill="#0B0D05" d="M24.452,14.813c-0.518,2.295-1.036,4.589-1.559,6.907
		c-0.748,0-1.478,0.008-2.207-0.012c-0.081-0.002-0.203-0.149-0.228-0.248c-0.377-1.55-0.742-3.102-1.109-4.653
		c-0.097-0.409-0.192-0.817-0.293-1.226c-0.028-0.112-0.077-0.217-0.116-0.326c-0.031,0.006-0.062,0.012-0.092,0.018
		c0,2.203,0,4.407,0,6.636c-0.744,0-1.442,0-2.181,0c0.135-3.214,0.27-6.417,0.406-9.635c0.058-0.016,0.115-0.044,0.17-0.044
		c1.054-0.002,2.108,0.004,3.162-0.008c0.214-0.001,0.261,0.087,0.301,0.273c0.443,2.077,0.898,4.151,1.403,6.234
		c0.438-2.162,0.875-4.324,1.311-6.479c1.124,0,2.221,0,3.354,0c0.048,3.205,0.097,6.369,0.145,9.552c-0.77,0-1.507,0-2.284,0
		c0-1.186,0-2.36,0-3.534c0-1.153-0.001-2.305-0.001-3.458C24.573,14.811,24.513,14.812,24.452,14.813z"/>
	<path fill-rule="evenodd" clip-rule="evenodd" fill="#090B05" d="M43.389,22.066c0.773,0.038,1.525,0.076,2.294,0.114
		c0,0.389,0,0.755,0,1.138c0.717,0,1.415,0,2.132,0c0-0.729,0-1.441,0-2.143c-0.43,0.113-0.85,0.275-1.283,0.33
		c-1.572,0.199-2.829-0.721-3.119-2.285c-0.185-0.999-0.1-1.978,0.424-2.877c0.505-0.869,1.304-1.244,2.279-1.309
		c0.947-0.063,1.802,0.121,2.483,0.972c0.129-0.282,0.227-0.498,0.339-0.743c0.462,0,0.965,0,1.491,0
		c0.007,0.087,0.019,0.17,0.019,0.253c0,2.021,0.008,4.042-0.007,6.063c-0.004,0.417-0.065,0.84-0.143,1.251
		c-0.19,0.995-0.8,1.634-1.764,1.906c-1.177,0.33-2.375,0.378-3.558,0.032C43.859,24.438,43.11,23.155,43.389,22.066z
		 M46.105,19.586c0.853,0,1.661,0,2.426,0c0-0.894,0-1.729,0-2.59c-0.855-0.043-1.649-0.084-2.426-0.123
		C46.105,17.817,46.105,18.714,46.105,19.586z"/>
	<path fill-rule="evenodd" clip-rule="evenodd" fill="#0D0F05" d="M32.305,17.63c0-0.429,0-0.821,0-1.276
		c-0.605-0.037-1.205-0.074-1.806-0.111c-0.255-0.016-0.393,0.091-0.396,0.359c0,0.11-0.025,0.22-0.042,0.349
		c-0.617,0-1.229,0-1.842,0c-0.06-0.813,0.4-1.549,1.186-1.754c1.288-0.338,2.6-0.363,3.893-0.028
		c0.936,0.243,1.45,0.946,1.52,1.965c0.029,0.406,0.004,0.815,0.004,1.223c0,1.135,0,2.269,0,3.404c-0.689,0-1.428,0-2.192,0
		c-0.019-0.202-0.035-0.378-0.054-0.599c-0.093,0.059-0.155,0.089-0.206,0.133c-0.875,0.753-1.886,0.792-2.941,0.544
		c-0.753-0.177-1.301-0.591-1.452-1.401c-0.171-0.916,0.16-1.623,0.91-2.149c0.66-0.464,1.433-0.505,2.196-0.568
		C31.477,17.686,31.872,17.662,32.305,17.63z M32.721,20.394c0.021-0.471,0.042-0.907,0.063-1.374c-0.695,0-1.359,0.012-2.024-0.006
		c-0.255-0.007-0.438,0.079-0.453,0.315c-0.022,0.343,0.021,0.69,0.047,1.034c0.001,0.014,0.088,0.03,0.135,0.03
		C31.227,20.395,31.964,20.394,32.721,20.394z"/>
	<path fill-rule="evenodd" clip-rule="evenodd" fill="#0B0D04" d="M40.159,17.046c-0.72,0.032-1.326,0.059-1.977,0.087
		c0,1.459,0,2.914,0,4.416c-0.816,0-1.587,0-2.321,0c0-2.017,0-4.044,0-6.063c0.614,0,1.261,0,1.94,0c0,0.274,0,0.49,0,0.696
		c0.492-0.275,0.951-0.556,1.432-0.794c0.667-0.331,1.388-0.351,2.109-0.268c0.691,0.079,1.088,0.563,1.135,1.471
		c0.058,1.125,0.053,2.254,0.068,3.382c0.008,0.618,0.001,1.236,0.001,1.881c-0.781,0-1.542,0-2.388,0
		C40.159,20.273,40.159,18.684,40.159,17.046z"/>
	<path fill-rule="evenodd" clip-rule="evenodd" fill="#191A07" d="M131.104,56.409c1.414-0.002,2.598,1.168,2.59,2.564
		c-0.008,1.425-1.169,2.622-2.543,2.619c-1.425-0.005-2.577-1.151-2.578-2.569C128.572,57.589,129.71,56.411,131.104,56.409z
		 M129.001,59.037c0.011,1.186,0.985,2.139,2.172,2.119c1.155-0.018,2.104-1.021,2.089-2.213c-0.016-1.174-0.999-2.109-2.198-2.093
		C129.913,56.867,128.988,57.845,129.001,59.037z"/>
	<path fill-rule="evenodd" clip-rule="evenodd" fill="#E02D2A" d="M30.359,36.551c2.758-0.651,5.515-1.301,8.309-1.961
		c1.271,2.299,2.542,4.599,3.814,6.896c0.022-0.005,0.044-0.01,0.068-0.015c0.09-2.304,0.18-4.609,0.271-6.93
		c3.344-0.526,6.657-1.046,10.005-1.573c0.006,0.103,0.021,0.195,0.015,0.287c-0.142,2.797-0.286,5.594-0.427,8.393
		c-0.086,1.683-0.159,3.368-0.261,5.049c-0.023,0.377-0.087,0.765-0.213,1.118c-0.633,1.784-1.292,3.559-1.942,5.337
		c-0.037,0.103-0.069,0.205-0.114,0.337c0.689,0.085,1.352,0.164,2.051,0.249c0,0.174,0.007,0.342-0.001,0.511
		c-0.062,1.338-0.134,2.676-0.185,4.012c-0.011,0.263-0.095,0.35-0.354,0.4c-2.705,0.546-5.407,1.109-8.152,1.678
		c-1.681-3.087-3.365-6.178-5.049-9.269c-0.021,0.003-0.043,0.008-0.064,0.013c0.234,2.325,0.47,4.647,0.708,7
		c-0.998,0.2-1.979,0.395-2.959,0.586c-1.591,0.311-3.183,0.62-4.774,0.928c-0.26,0-0.521,0-0.818,0c0-2.273,0-4.543,0-6.811
		c-0.014,0-0.028,0-0.042,0c-0.031,0.41-0.063,0.82-0.093,1.233c-0.002-0.497-0.004-0.992-0.007-1.486
		c0.047-0.112,0.133-0.228,0.134-0.342c0.01-1.212,0.01-2.425,0-3.638c0-0.114-0.09-0.227-0.138-0.338c0-0.05,0-0.097,0-0.146
		c0.023-0.21,0.068-0.419,0.068-0.63c0.005-3.444,0.001-6.889,0.009-10.334C30.217,36.922,30.31,36.736,30.359,36.551z"/>
	<path fill-rule="evenodd" clip-rule="evenodd" fill="#E02D2B" d="M88.473,38.242c-0.921,0.102-1.844,0.196-2.764,0.31
		c-0.192,0.023-0.381,0.103-0.565,0.176c-1.308,0.518-1.577,2.018-0.499,2.943c0.37,0.315,0.822,0.563,1.275,0.742
		c1.382,0.545,2.779,1.039,4.171,1.559c0.246,0.089,0.479,0.198,0.721,0.301c1.918,0.81,2.878,2.344,3.202,4.323
		c0.165,0.998-0.131,1.918-0.67,2.756c-1.006,1.563-2.448,2.602-4.117,3.354c-1.572,0.709-3.229,1.101-4.934,1.314
		c-1.56,0.194-3.12,0.417-4.685,0.559c-1.367,0.123-2.742,0.149-4.142,0.219c0-3.349,0-6.647,0-9.985
		c0.45,0.023,0.865,0.071,1.28,0.064c0.841-0.011,1.681-0.05,2.52-0.077c0.037-0.001,0.074-0.01,0.111-0.019
		c0.342-0.077,0.666-0.214,0.74-0.589c0.073-0.365-0.229-0.57-0.495-0.711c-0.389-0.21-0.813-0.354-1.224-0.526
		c-0.637-0.27-1.303-0.487-1.904-0.818c-1.63-0.894-2.442-2.334-2.607-4.158c-0.279-3.083,1.112-5.369,3.45-7.195
		c1.912-1.492,4.118-2.297,6.478-2.71c1.022-0.18,2.062-0.255,3.095-0.378c0.403,0.023,0.808,0.074,1.209,0.06
		c0.349-0.013,0.438,0.105,0.438,0.443c-0.013,2.539-0.006,5.076-0.011,7.612C88.546,37.955,88.498,38.098,88.473,38.242z"/>
	<path fill-rule="evenodd" clip-rule="evenodd" fill="#DF2D2B" d="M52.842,51.478c0.33-0.907,0.646-1.789,0.968-2.668
		c2.649-7.25,5.301-14.499,7.942-21.752c0.099-0.27,0.238-0.381,0.517-0.428c1.624-0.271,3.244-0.562,4.929-0.858
		c1.796,8.103,3.591,16.201,5.394,24.334c-3.02,0.816-6,1.623-9.029,2.442c0.061-2.244,0.122-4.451,0.185-6.692
		c-0.441-0.023-0.858-0.062-1.274-0.054c-0.088,0.002-0.225,0.165-0.25,0.273c-0.43,1.782-0.845,3.566-1.264,5.35
		c-0.148,0.625-0.148,0.64-0.779,0.593C57.747,51.845,55.313,51.66,52.842,51.478z M62.22,41.076
		c0.641,0.095,1.244,0.185,1.892,0.278c-0.198-1.15-0.388-2.253-0.578-3.355c-0.023,0-0.048,0-0.072,0
		C63.056,39.004,62.651,40.008,62.22,41.076z"/>
	<path fill-rule="evenodd" clip-rule="evenodd" fill="#DF2D2B" d="M111.988,44.747c-2.959,0.858-5.88,1.706-8.841,2.565
		c0.068-2.328,0.136-4.624,0.202-6.899c-0.48,0-0.923-0.02-1.363,0.016c-0.095,0.008-0.221,0.198-0.252,0.324
		c-0.435,1.844-0.856,3.689-1.277,5.535c-0.167,0.729-0.164,0.732-0.911,0.719c-0.805-0.017-1.61-0.026-2.416-0.057
		c-0.112-0.004-0.292-0.1-0.318-0.189c-0.484-1.627-1.431-2.893-2.92-3.776c0.327-0.918,0.65-1.823,0.973-2.728
		c2.204-6.175,4.406-12.35,6.604-18.527c0.088-0.251,0.195-0.369,0.477-0.409c1.591-0.231,3.18-0.488,4.815-0.744
		C108.503,28.633,110.239,36.67,111.988,44.747z M103.637,35.973c-0.251-1.11-0.486-2.147-0.721-3.185
		c-0.021,0.002-0.042,0.004-0.064,0.006c-0.308,1.061-0.614,2.12-0.921,3.179C102.511,35.973,103.05,35.973,103.637,35.973z"/>
	<path fill-rule="evenodd" clip-rule="evenodd" fill="#E02D2B" d="M123.227,29.108c0.001,0.022-0.002,0.043-0.014,0.063
		c0.001,0.248,0.002,0.496,0.003,0.744c-0.105,1.309-0.21,2.617-0.322,3.926c-0.182,2.123-0.371,4.246-0.557,6.368
		c-0.094,1.074-0.189,2.148-0.282,3.223c-0.012,0.146-0.002,0.292-0.002,0.495c1.595-0.339,3.174-0.673,4.813-1.022
		c-0.219,3.574-0.438,7.111-0.657,10.697c-4.331-0.588-8.619-1.17-12.908-1.753c0-0.383-0.005-0.74,0-1.096
		c0.012-1.177,0.036-2.355,0.038-3.532c0-0.25,0.077-0.349,0.315-0.393c0.436-0.077,0.867-0.182,1.346-0.284
		c-0.147-0.729-0.289-1.44-0.436-2.151c-0.18-0.859-0.388-1.715-0.529-2.582c-0.059-0.371,0.004-0.764,0.034-1.145
		c0.255-3.137,0.518-6.273,0.776-9.41c0.029,0.066,0.057,0.132,0.094,0.221c0.061-0.817,0.119-1.592,0.179-2.368
		c0.032-0.405,0.086-0.81,0.107-1.216c0.018-0.312,0.177-0.369,0.46-0.367c2.294,0.011,4.59,0.006,6.884,0.006
		c0.622,0,0.622,0,0.802,0.523c-0.001,0.049-0.004,0.098-0.006,0.147c-0.047,0.097-0.124,0.191-0.135,0.293
		C123.209,28.696,123.226,28.903,123.227,29.108z"/>
	<path fill-rule="evenodd" clip-rule="evenodd" fill="#DF2D2B" d="M20.369,56.949c-1.538-8.38-3.074-16.749-4.612-25.129
		c2.615-0.812,5.209-1.617,7.845-2.435c0.208,0.798,0.41,1.586,0.616,2.371c1.112,4.224,2.225,8.447,3.334,12.672
		c0.042,0.165,0.07,0.34,0.071,0.51c0.023,2.95,0.038,5.901,0.063,8.851c0.001,0.228-0.046,0.356-0.276,0.445
		c-2.285,0.883-4.565,1.778-6.847,2.669C20.518,56.919,20.469,56.926,20.369,56.949z"/>
	<path fill-rule="evenodd" clip-rule="evenodd" fill="#D63430" d="M30.359,36.551c-0.049,0.185-0.142,0.371-0.142,0.555
		c-0.008,3.445-0.004,6.89-0.009,10.334c0,0.211-0.044,0.42-0.068,0.63c-0.019-2.497-0.039-4.994-0.054-7.491
		c-0.008-1.224-0.004-2.449-0.018-3.672C30.065,36.682,30.109,36.545,30.359,36.551z"/>
	<path fill-rule="evenodd" clip-rule="evenodd" fill="#CE342F" d="M88.473,38.242c0.025-0.144,0.073-0.288,0.073-0.433
		c0.005-2.536-0.002-5.074,0.011-7.612c0.001-0.338-0.089-0.457-0.438-0.443c-0.401,0.015-0.806-0.037-1.209-0.06
		c0.576-0.029,1.152-0.059,1.752-0.089c0.012,0.151,0.025,0.245,0.025,0.339c-0.005,2.658-0.01,5.316-0.022,7.974
		C88.664,38.043,88.779,38.281,88.473,38.242z"/>
	<path fill-rule="evenodd" clip-rule="evenodd" fill="#E93935" d="M123.37,28.055c-0.18-0.523-0.18-0.523-0.802-0.523
		c-2.294,0-4.59,0.005-6.884-0.006c-0.283-0.002-0.442,0.055-0.46,0.367c-0.021,0.406-0.075,0.811-0.107,1.216
		c-0.06,0.775-0.118,1.551-0.179,2.368c-0.037-0.088-0.064-0.155-0.094-0.221c0.095-1.252,0.193-2.504,0.292-3.786
		c2.779,0,5.527,0,8.313,0C123.423,27.671,123.396,27.863,123.37,28.055z"/>
	<path fill-rule="evenodd" clip-rule="evenodd" fill="#D63430" d="M30.151,54.021c0.031-0.413,0.062-0.823,0.093-1.233
		c0.014,0,0.028,0,0.042,0c0,2.268,0,4.537,0,6.811c0.297,0,0.558,0,0.818,0c-0.299,0.068-0.598,0.133-0.954,0.214
		C30.151,57.851,30.151,55.936,30.151,54.021z"/>
	<path fill-rule="evenodd" clip-rule="evenodd" fill="#D63430" d="M30.14,48.217c0.048,0.111,0.138,0.224,0.138,0.338
		c0.01,1.213,0.01,2.426,0,3.638c0,0.114-0.087,0.229-0.134,0.342C30.143,51.095,30.142,49.655,30.14,48.217z"/>
	<path fill-rule="evenodd" clip-rule="evenodd" fill="#E93935" d="M123.227,29.108c-0.001-0.205-0.018-0.412,0.003-0.613
		c0.011-0.102,0.088-0.196,0.135-0.293C123.318,28.503,123.273,28.806,123.227,29.108z"/>
	<path fill-rule="evenodd" clip-rule="evenodd" fill="#E93935" d="M123.216,29.914c-0.001-0.248-0.002-0.496-0.003-0.744
		C123.214,29.418,123.215,29.666,123.216,29.914z"/>
	<path fill-rule="evenodd" clip-rule="evenodd" fill="#F4E629" d="M55.138,38.247c-0.01,0.018-0.02,0.034-0.03,0.051
		c-0.006-0.01-0.012-0.02-0.018-0.03c0.016-0.008,0.031-0.016,0.046-0.023L55.138,38.247z"/>
	<path fill-rule="evenodd" clip-rule="evenodd" fill="#F1E32B" d="M46.105,19.586c0-0.872,0-1.77,0-2.713
		c0.777,0.039,1.571,0.079,2.426,0.123c0,0.861,0,1.696,0,2.59C47.766,19.586,46.958,19.586,46.105,19.586z"/>
	<path fill-rule="evenodd" clip-rule="evenodd" fill="#F3E52C" d="M32.721,20.394c-0.757,0-1.495,0-2.232-0.001
		c-0.047,0-0.134-0.016-0.135-0.03c-0.025-0.344-0.069-0.691-0.047-1.034c0.015-0.237,0.197-0.323,0.453-0.315
		c0.665,0.019,1.329,0.006,2.024,0.006C32.763,19.487,32.743,19.923,32.721,20.394z"/>
	<path fill-rule="evenodd" clip-rule="evenodd" fill="#F0E32D" d="M129.001,59.037c-0.013-1.192,0.912-2.17,2.063-2.187
		c1.199-0.017,2.183,0.919,2.198,2.093c0.015,1.191-0.934,2.195-2.089,2.213C129.986,61.176,129.012,60.223,129.001,59.037z
		 M132.41,60.436c-0.293-0.443-0.575-0.87-0.861-1.304c0.6-0.142,0.813-0.371,0.81-0.854c-0.003-0.425-0.272-0.707-0.834-0.777
		c-0.46-0.059-0.926-0.049-1.421-0.072c0,1.034,0,2.007,0,2.992c0.152,0,0.298,0,0.489,0c0-0.426,0-0.839,0-1.222
		c0.352-0.112,0.532,0.021,0.673,0.284c0.122,0.229,0.302,0.427,0.417,0.657C131.835,60.438,132.053,60.532,132.41,60.436z"/>
	<path fill-rule="evenodd" clip-rule="evenodd" fill="#170803" d="M62.22,41.076c0.432-1.068,0.836-2.072,1.241-3.077
		c0.024,0,0.049,0,0.072,0c0.19,1.102,0.38,2.205,0.578,3.355C63.463,41.261,62.861,41.171,62.22,41.076z"/>
	<path fill-rule="evenodd" clip-rule="evenodd" fill="#1B0903" d="M103.637,35.973c-0.587,0-1.126,0-1.706,0
		c0.307-1.059,0.613-2.118,0.921-3.179c0.022-0.002,0.043-0.004,0.064-0.006C103.15,33.825,103.386,34.862,103.637,35.973z"/>
	<path fill-rule="evenodd" clip-rule="evenodd" fill="#1E1F08" d="M132.41,60.436c-0.357,0.097-0.575,0.003-0.728-0.295
		c-0.115-0.23-0.295-0.429-0.417-0.657c-0.141-0.263-0.321-0.396-0.673-0.284c0,0.383,0,0.796,0,1.222c-0.191,0-0.337,0-0.489,0
		c0-0.985,0-1.958,0-2.992c0.495,0.023,0.961,0.014,1.421,0.072c0.562,0.07,0.831,0.353,0.834,0.777
		c0.003,0.482-0.21,0.712-0.81,0.854C131.835,59.565,132.117,59.992,132.41,60.436z M130.603,58.835
		c0.334-0.03,0.651-0.017,0.937-0.104c0.139-0.042,0.304-0.276,0.301-0.421c-0.003-0.141-0.179-0.359-0.322-0.402
		c-0.284-0.084-0.596-0.071-0.915-0.101C130.603,58.164,130.603,58.458,130.603,58.835z"/>
	<path fill-rule="evenodd" clip-rule="evenodd" fill="#EEE12E" d="M130.603,58.835c0-0.377,0-0.671,0-1.028
		c0.319,0.029,0.631,0.017,0.915,0.101c0.144,0.043,0.319,0.262,0.322,0.402c0.003,0.145-0.162,0.379-0.301,0.421
		C131.254,58.818,130.937,58.805,130.603,58.835z"/>
</g>
</svg>
